HIERARCHY
ROOT hip
{
	OFFSET 0.000000 0.000000 0.000000 
	CHANNELS 6 Xposition Yposition Zposition Xrotation Zrotation Yrotation
	JOINT abdomen
	{
		OFFSET 0.000000 3.402643 0.000000 
		CHANNELS 3 Xrotation Zrotation Yrotation
		JOINT chest
		{
			OFFSET 0.000000 8.438565 -0.680529 
			CHANNELS 3 Xrotation Zrotation Yrotation
			JOINT neck
			{
				OFFSET 0.000000 10.207942 -0.272212 
				CHANNELS 3 Xrotation Zrotation Yrotation
				JOINT head
				{
					OFFSET 0.000000 3.130431 0.000000 
					CHANNELS 3 Xrotation Zrotation Yrotation
					End Site
					{
						OFFSET 0.000000 3.130435 0.000000 
					}
				}
			}
			JOINT lCollar
			{
				OFFSET 3.470700 6.669187 -0.816635 
				CHANNELS 3 Yrotation Zrotation Xrotation
				JOINT lShldr
				{
					OFFSET 3.198488 0.000000 0.000000 
					CHANNELS 3 Zrotation Yrotation Xrotation
					JOINT lForeArm
					{
						OFFSET 10.139888 0.000000 0.000000 
						CHANNELS 3 Yrotation Zrotation Xrotation
						JOINT lHand
						{
							OFFSET 8.370511 0.000000 0.000000 
							CHANNELS 3 Zrotation Yrotation Xrotation
							End Site
							{
								OFFSET 4.083176 0.000000 0.000000 
							}
						}
					}
				}
			}
			JOINT rCollar
			{
				OFFSET -3.470700 6.669187 -0.816635 
				CHANNELS 3 Yrotation Zrotation Xrotation
				JOINT rShldr
				{
					OFFSET -3.198488 0.000000 0.000000 
					CHANNELS 3 Zrotation Yrotation Xrotation
					JOINT rForeArm
					{
						OFFSET -10.139888 0.000000 0.000000 
						CHANNELS 3 Yrotation Zrotation Xrotation
						JOINT rHand
						{
							OFFSET -8.370511 0.000000 0.000000 
							CHANNELS 3 Zrotation Yrotation Xrotation
							End Site
							{
								OFFSET -4.083176 0.000000 0.000000 
							}
						}
					}
				}
			}
		}
	}
	JOINT lThigh
	{
		OFFSET 5.308129 -1.633274 1.361059 
		CHANNELS 3 Xrotation Zrotation Yrotation
		JOINT lShin
		{
			OFFSET -2.041588 -20.007561 0.000000 
			CHANNELS 3 Xrotation Zrotation Yrotation
			JOINT lFoot
			{
				OFFSET 0.000000 -19.190928 -1.224953 
				CHANNELS 3 Xrotation Yrotation Zrotation
				End Site
				{
					OFFSET 0.000000 -2.449906 4.627600 
				}
			}
		}
	}
	JOINT rThigh
	{
		OFFSET -5.308129 -1.633274 1.361059 
		CHANNELS 3 Xrotation Zrotation Yrotation
		JOINT rShin
		{
			OFFSET 2.041588 -20.007561 0.000000 
			CHANNELS 3 Xrotation Zrotation Yrotation
			JOINT rFoot
			{
				OFFSET 0.000000 -19.190928 -1.224953 
				CHANNELS 3 Xrotation Yrotation Zrotation
				End Site
				{
					OFFSET 0.000000 -2.449906 4.627600 
				}
			}
		}
	}
}
MOTION
Frames: 8
Frame Time: 0.011111
24.098124 51.000080 16.265968 -8.688621 12.751498 -116.919502 12.605013 -1.681739 12.412689 -17.744469 -2.010471 3.394147 -7.758162 6.350601 7.194477 16.821947 -21.095598 12.191551 -13.725516 -13.189672 -3.762996 -42.503513 -43.597153 28.167076 -68.083633 9.333971 16.152185 8.524705 12.647240 8.404892 8.354301 9.292459 -1.514610 69.781799 0.146896 29.985460 90.027748 -5.827823 35.163574 -8.534408 -12.637552 43.519386 -38.842335 6.853097 13.117403 44.825272 -4.270463 -6.647780 -25.867250 -3.631914 -3.897838 -3.115257 3.427134 -12.523091 32.369652 5.191541 5.135657 -37.267082 -15.008629 -8.766470 
24.274950 50.920601 16.098078 -8.614057 13.354735 -115.715996 11.815768 -1.802175 13.094950 -17.969906 -1.751772 3.598677 -7.562244 5.930867 6.982890 16.637461 -20.697447 11.756467 -13.725516 -13.189672 -3.762996 -42.091831 -41.402088 30.909735 -69.940056 9.162077 17.056473 8.524705 12.647240 10.035752 8.354301 9.292459 -1.514610 68.624878 2.225384 29.309650 89.321106 -5.259002 34.674637 -8.534408 -12.637552 42.786964 -38.894268 6.249273 14.722424 47.424416 -4.043693 -6.924217 -26.248241 -5.202693 -4.675323 -4.520804 3.622215 -13.712551 34.259804 5.075936 5.378305 -36.745068 -14.558930 -8.278096 
24.348680 50.856449 15.903378 -8.410087 13.389154 -115.209183 11.444901 -2.237774 14.298511 -17.815493 -1.564047 3.964970 -7.753705 6.026160 6.628348 16.648804 -20.608622 11.110620 -13.725516 -13.189672 -3.762996 -41.605942 -39.373550 33.666679 -71.918777 8.890778 18.032099 8.524705 12.647240 12.018174 8.354301 9.292459 -1.514610 67.749039 4.938740 28.260193 88.719009 -4.715752 34.223755 -8.534408 -12.637552 43.060410 -38.005768 5.770572 15.781384 49.115582 -3.890319 -7.099551 -26.307531 -7.043827 -5.609921 -5.405163 3.543403 -14.686131 36.392548 4.954340 5.637067 -35.676250 -14.280391 -7.645400 
24.339108 50.801865 15.704842 -8.054966 13.062341 -115.084930 11.423842 -2.508346 15.517964 -17.768148 -1.526273 4.327363 -7.761253 6.250669 6.321020 16.510399 -20.645227 10.588247 -13.725516 -13.189672 -3.762996 -41.239433 -36.873848 36.188087 -74.056320 8.478409 19.130753 8.524705 12.647240 13.531846 8.354301 9.292459 -1.514610 67.058678 7.650409 27.472425 88.093155 -4.075953 33.694687 -8.534408 -12.637552 43.167831 -36.373810 5.399261 16.400366 49.832691 -3.810178 -7.192457 -25.934980 -8.576909 -6.407485 -5.990750 3.250972 -15.721480 38.840023 4.778980 5.932870 -34.146168 -13.973409 -6.812626 
24.288359 50.750473 15.513012 -7.561397 12.693666 -114.710709 11.430648 -2.208906 16.156916 -17.475954 -1.820485 4.471241 -7.539079 6.234607 6.186023 15.942124 -20.321199 10.448538 -13.725516 -13.189672 -3.762996 -40.839836 -34.116745 38.132294 -76.091522 7.952481 20.209900 8.524705 12.647240 13.678330 8.354301 9.292459 -1.514610 66.656242 10.810046 26.550755 87.568886 -3.456809 33.174133 -8.534408 -12.637552 44.447124 -34.340569 4.900256 15.621293 48.564968 -3.936671 -7.053612 -26.410870 -12.005759 -8.300655 -6.598534 2.841226 -17.166260 41.609463 4.554236 6.252225 -32.445381 -13.559077 -5.892701 
24.235373 50.688240 15.275220 -7.265979 12.357219 -115.116447 11.235622 -2.207227 16.944794 -17.360245 -1.733677 4.678208 -7.235453 6.089307 6.185374 15.600854 -19.993052 10.495067 -13.725516 -13.189672 -3.762996 -40.807590 -30.915257 40.287216 -78.355316 7.187916 21.473200 8.524705 12.647240 15.924425 8.354301 9.292459 -1.514610 66.230812 14.046074 25.813726 87.071976 -2.768739 32.526058 -8.534408 -12.637552 44.544781 -31.755106 4.618060 15.281297 44.855198 -4.277471 -6.624044 -28.218369 -10.295156 -7.508408 -7.505159 2.314637 -18.065853 44.738369 4.274182 6.593266 -30.494944 -12.825917 -4.774722 
24.177280 50.628227 15.074451 -7.294850 12.356129 -114.733643 10.636405 -2.302153 17.090992 -17.379938 -1.734762 4.727553 -7.306496 6.223600 6.091880 15.956150 -19.782892 10.327123 -13.725516 -13.189672 -3.762996 -40.827782 -27.719982 42.607300 -80.253189 6.360887 22.619043 8.524705 12.647240 17.731064 8.354301 9.292459 -1.514610 65.945671 17.511568 24.821812 86.669495 -2.084095 31.776987 -8.534408 -12.637552 44.544781 -29.480391 3.651886 14.554344 41.253654 -4.569586 -6.246459 -29.579037 -9.129174 -6.925775 -8.886209 1.181375 -19.816929 47.995464 3.990395 6.969508 -28.100262 -11.905922 -3.526273 
24.125254 50.611309 14.898902 -7.496217 12.317565 -114.076683 10.094853 -2.514247 16.954767 -17.261932 -2.163658 4.700069 -8.004256 6.501126 5.927377 16.926456 -19.260111 10.056212 -13.725516 -13.189672 -3.762996 -40.396286 -25.108282 45.205288 -81.809357 5.508916 23.652578 8.524705 12.647240 20.094349 8.354301 9.292459 -1.514610 66.284004 21.289551 23.481184 86.400475 -1.530237 30.908348 -8.534408 -12.637552 44.095558 -27.968542 2.959171 14.810139 39.414425 -4.722583 -6.022581 -28.784985 -9.304775 -7.000269 -10.487662 -0.536887 -21.852694 51.611816 3.613307 7.340688 -25.152569 -10.988184 -2.238626 
